# xmcd
#
# Track frame offsets: 
#        150
#        15754
#        31525
#        43451
#        64404
#        83296
#        107594
#        121694
#        143205
#        165051
#
# Disc length: 2413 seconds
#
# Revision: 0
# Processed by: cddbd v1.5.2PL0 Copyright (c) Steve Scherf et al.
# Submitted via: ExactAudioCopyFreeDBPlugin 1.0
#
DISCID=66096b0a
DTITLE=よしむらひらく - Setagaya Wandering Education
DYEAR=2010
DGENRE=Blues
TTITLE0=夜風に吹かれて
TTITLE1=春の呼吸
TTITLE2=とんびの浜
TTITLE3=漂白
TTITLE4=雨／ドアスコープ／月
TTITLE5=untouchable
TTITLE6=かくしごと
TTITLE7=the ballad
TTITLE8=しあわせ
TTITLE9=story
EXTD=
EXTT0=
EXTT1=
EXTT2=
EXTT3=
EXTT4=
EXTT5=
EXTT6=
EXTT7=
EXTT8=
EXTT9=
PLAYORDER=
